<mxfile host="app.dxmy.fun" modified="2023-12-02T10:44:04.622Z" agent="Mozilla/5.0 (Windows NT 10.0; Win64; x64) AppleWebKit/537.36 (KHTML, like Gecko) Chrome/118.0.0.0 Safari/537.36 Edg/118.0.2088.69" etag="XyI0EhSNz7aOTh72nid9" version="22.1.4" type="device" pages="3">
  <diagram name="原始代码" id="GpiCbj5rdgDIWsVei6Y-">
    <mxGraphModel dx="1353" dy="1369" grid="1" gridSize="5" guides="1" tooltips="1" connect="1" arrows="1" fold="1" page="0" pageScale="1" pageWidth="827" pageHeight="1169" math="0" shadow="0">
      <root>
        <mxCell id="0" />
        <mxCell id="1" parent="0" />
        <mxCell id="Va1dS70a_uc38eQ9kZBu-42" value="&lt;font style=&quot;font-size: 18px;&quot;&gt;接口之间的差别&lt;/font&gt;" style="rounded=0;whiteSpace=wrap;html=1;dashed=1;dashPattern=8 8;shadow=0;strokeWidth=2;fillStyle=auto;opacity=30;fillColor=#bac8d3;strokeColor=#23445d;movable=1;resizable=1;rotatable=1;deletable=1;editable=1;locked=0;connectable=1;align=center;horizontal=1;verticalAlign=top;fontSize=18;labelBackgroundColor=none;labelBorderColor=none;spacingTop=6;fontFamily=HarmonyOS Sans SC;" parent="1" vertex="1">
          <mxGeometry x="350" width="400" height="400" as="geometry" />
        </mxCell>
        <mxCell id="Va1dS70a_uc38eQ9kZBu-3" value="" style="edgeStyle=orthogonalEdgeStyle;rounded=0;orthogonalLoop=1;jettySize=auto;html=1;fontFamily=HarmonyOS Sans SC;" parent="1" source="Va1dS70a_uc38eQ9kZBu-1" target="Va1dS70a_uc38eQ9kZBu-2" edge="1">
          <mxGeometry relative="1" as="geometry" />
        </mxCell>
        <mxCell id="Va1dS70a_uc38eQ9kZBu-1" value="打印入参" style="rounded=1;whiteSpace=wrap;html=1;fontSize=16;fillColor=#dae8fc;strokeColor=#6c8ebf;fontFamily=HarmonyOS Sans SC;" parent="1" vertex="1">
          <mxGeometry x="190" y="60" width="120" height="60" as="geometry" />
        </mxCell>
        <mxCell id="Va1dS70a_uc38eQ9kZBu-5" value="" style="edgeStyle=orthogonalEdgeStyle;rounded=0;orthogonalLoop=1;jettySize=auto;html=1;fontFamily=HarmonyOS Sans SC;" parent="1" source="Va1dS70a_uc38eQ9kZBu-2" target="Va1dS70a_uc38eQ9kZBu-4" edge="1">
          <mxGeometry relative="1" as="geometry" />
        </mxCell>
        <mxCell id="Va1dS70a_uc38eQ9kZBu-22" style="edgeStyle=orthogonalEdgeStyle;rounded=0;orthogonalLoop=1;jettySize=auto;html=1;entryX=0.5;entryY=1;entryDx=0;entryDy=0;fontFamily=HarmonyOS Sans SC;" parent="1" source="Va1dS70a_uc38eQ9kZBu-2" target="Va1dS70a_uc38eQ9kZBu-14" edge="1">
          <mxGeometry relative="1" as="geometry">
            <mxPoint x="1170" y="188" as="targetPoint" />
            <Array as="points">
              <mxPoint x="450" y="190" />
              <mxPoint x="1160" y="190" />
            </Array>
          </mxGeometry>
        </mxCell>
        <mxCell id="Va1dS70a_uc38eQ9kZBu-2" value="校验入参" style="whiteSpace=wrap;html=1;fontSize=16;rounded=1;fontFamily=HarmonyOS Sans SC;" parent="1" vertex="1">
          <mxGeometry x="390" y="60" width="120" height="60" as="geometry" />
        </mxCell>
        <mxCell id="Va1dS70a_uc38eQ9kZBu-7" value="" style="edgeStyle=orthogonalEdgeStyle;rounded=0;orthogonalLoop=1;jettySize=auto;html=1;fontFamily=HarmonyOS Sans SC;" parent="1" source="Va1dS70a_uc38eQ9kZBu-4" target="Va1dS70a_uc38eQ9kZBu-6" edge="1">
          <mxGeometry relative="1" as="geometry" />
        </mxCell>
        <mxCell id="Va1dS70a_uc38eQ9kZBu-25" style="edgeStyle=orthogonalEdgeStyle;rounded=0;orthogonalLoop=1;jettySize=auto;html=1;entryX=0.5;entryY=1;entryDx=0;entryDy=0;fontFamily=HarmonyOS Sans SC;" parent="1" source="Va1dS70a_uc38eQ9kZBu-4" target="Va1dS70a_uc38eQ9kZBu-14" edge="1">
          <mxGeometry relative="1" as="geometry">
            <mxPoint x="650" y="378" as="targetPoint" />
            <Array as="points">
              <mxPoint x="650" y="190" />
              <mxPoint x="1160" y="190" />
            </Array>
          </mxGeometry>
        </mxCell>
        <mxCell id="Va1dS70a_uc38eQ9kZBu-4" value="业务逻辑" style="whiteSpace=wrap;html=1;fontSize=16;rounded=1;fontFamily=HarmonyOS Sans SC;" parent="1" vertex="1">
          <mxGeometry x="590" y="60" width="120" height="60" as="geometry" />
        </mxCell>
        <mxCell id="Va1dS70a_uc38eQ9kZBu-13" value="" style="edgeStyle=orthogonalEdgeStyle;rounded=0;orthogonalLoop=1;jettySize=auto;html=1;fontFamily=HarmonyOS Sans SC;" parent="1" source="Va1dS70a_uc38eQ9kZBu-6" target="Va1dS70a_uc38eQ9kZBu-10" edge="1">
          <mxGeometry relative="1" as="geometry" />
        </mxCell>
        <mxCell id="Va1dS70a_uc38eQ9kZBu-6" value="打印出参" style="whiteSpace=wrap;html=1;fontSize=16;rounded=1;fillColor=#dae8fc;strokeColor=#6c8ebf;fontFamily=HarmonyOS Sans SC;" parent="1" vertex="1">
          <mxGeometry x="790" y="60" width="120" height="60" as="geometry" />
        </mxCell>
        <mxCell id="Va1dS70a_uc38eQ9kZBu-10" value="" style="ellipse;html=1;shape=endState;fillColor=#000000;strokeColor=#ff0000;fontFamily=HarmonyOS Sans SC;" parent="1" vertex="1">
          <mxGeometry x="990" y="75" width="30" height="30" as="geometry" />
        </mxCell>
        <mxCell id="Va1dS70a_uc38eQ9kZBu-16" value="" style="edgeStyle=orthogonalEdgeStyle;rounded=0;orthogonalLoop=1;jettySize=auto;html=1;fontFamily=HarmonyOS Sans SC;" parent="1" source="Va1dS70a_uc38eQ9kZBu-14" target="Va1dS70a_uc38eQ9kZBu-10" edge="1">
          <mxGeometry relative="1" as="geometry" />
        </mxCell>
        <mxCell id="Va1dS70a_uc38eQ9kZBu-14" value="处理异常" style="whiteSpace=wrap;html=1;fontSize=16;rounded=1;fillColor=#dae8fc;strokeColor=#6c8ebf;fontFamily=HarmonyOS Sans SC;" parent="1" vertex="1">
          <mxGeometry x="1100" y="60" width="120" height="60" as="geometry" />
        </mxCell>
        <mxCell id="Va1dS70a_uc38eQ9kZBu-27" value="&lt;font style=&quot;font-size: 16px;&quot;&gt;接口 A&lt;/font&gt;" style="text;strokeColor=none;align=center;fillColor=none;html=1;verticalAlign=middle;whiteSpace=wrap;rounded=0;fontFamily=HarmonyOS Sans SC;" parent="1" vertex="1">
          <mxGeometry y="75" width="60" height="30" as="geometry" />
        </mxCell>
        <mxCell id="Va1dS70a_uc38eQ9kZBu-28" value="" style="edgeStyle=orthogonalEdgeStyle;rounded=0;orthogonalLoop=1;jettySize=auto;html=1;fontFamily=HarmonyOS Sans SC;" parent="1" source="Va1dS70a_uc38eQ9kZBu-29" target="Va1dS70a_uc38eQ9kZBu-32" edge="1">
          <mxGeometry relative="1" as="geometry" />
        </mxCell>
        <mxCell id="Va1dS70a_uc38eQ9kZBu-29" value="打印入参" style="rounded=1;whiteSpace=wrap;html=1;fontSize=16;fillColor=#dae8fc;strokeColor=#6c8ebf;fontFamily=HarmonyOS Sans SC;" parent="1" vertex="1">
          <mxGeometry x="190" y="240" width="120" height="60" as="geometry" />
        </mxCell>
        <mxCell id="Va1dS70a_uc38eQ9kZBu-30" value="" style="edgeStyle=orthogonalEdgeStyle;rounded=0;orthogonalLoop=1;jettySize=auto;html=1;fontFamily=HarmonyOS Sans SC;" parent="1" source="Va1dS70a_uc38eQ9kZBu-32" target="Va1dS70a_uc38eQ9kZBu-35" edge="1">
          <mxGeometry relative="1" as="geometry" />
        </mxCell>
        <mxCell id="Va1dS70a_uc38eQ9kZBu-31" style="edgeStyle=orthogonalEdgeStyle;rounded=0;orthogonalLoop=1;jettySize=auto;html=1;entryX=0.5;entryY=1;entryDx=0;entryDy=0;fontFamily=HarmonyOS Sans SC;" parent="1" source="Va1dS70a_uc38eQ9kZBu-32" target="Va1dS70a_uc38eQ9kZBu-40" edge="1">
          <mxGeometry relative="1" as="geometry">
            <mxPoint x="1170" y="368" as="targetPoint" />
            <Array as="points">
              <mxPoint x="450" y="370" />
              <mxPoint x="1160" y="370" />
            </Array>
          </mxGeometry>
        </mxCell>
        <mxCell id="Va1dS70a_uc38eQ9kZBu-32" value="校验入参" style="whiteSpace=wrap;html=1;fontSize=16;rounded=1;fontFamily=HarmonyOS Sans SC;" parent="1" vertex="1">
          <mxGeometry x="390" y="240" width="120" height="60" as="geometry" />
        </mxCell>
        <mxCell id="Va1dS70a_uc38eQ9kZBu-33" value="" style="edgeStyle=orthogonalEdgeStyle;rounded=0;orthogonalLoop=1;jettySize=auto;html=1;fontFamily=HarmonyOS Sans SC;" parent="1" source="Va1dS70a_uc38eQ9kZBu-35" target="Va1dS70a_uc38eQ9kZBu-37" edge="1">
          <mxGeometry relative="1" as="geometry" />
        </mxCell>
        <mxCell id="Va1dS70a_uc38eQ9kZBu-34" style="edgeStyle=orthogonalEdgeStyle;rounded=0;orthogonalLoop=1;jettySize=auto;html=1;entryX=0.5;entryY=1;entryDx=0;entryDy=0;fontFamily=HarmonyOS Sans SC;" parent="1" source="Va1dS70a_uc38eQ9kZBu-35" target="Va1dS70a_uc38eQ9kZBu-40" edge="1">
          <mxGeometry relative="1" as="geometry">
            <mxPoint x="650" y="558" as="targetPoint" />
            <Array as="points">
              <mxPoint x="650" y="370" />
              <mxPoint x="1160" y="370" />
            </Array>
          </mxGeometry>
        </mxCell>
        <mxCell id="Va1dS70a_uc38eQ9kZBu-35" value="业务逻辑" style="whiteSpace=wrap;html=1;fontSize=16;rounded=1;fontFamily=HarmonyOS Sans SC;" parent="1" vertex="1">
          <mxGeometry x="590" y="240" width="120" height="60" as="geometry" />
        </mxCell>
        <mxCell id="Va1dS70a_uc38eQ9kZBu-36" value="" style="edgeStyle=orthogonalEdgeStyle;rounded=0;orthogonalLoop=1;jettySize=auto;html=1;fontFamily=HarmonyOS Sans SC;" parent="1" source="Va1dS70a_uc38eQ9kZBu-37" target="Va1dS70a_uc38eQ9kZBu-38" edge="1">
          <mxGeometry relative="1" as="geometry" />
        </mxCell>
        <mxCell id="Va1dS70a_uc38eQ9kZBu-37" value="打印出参" style="whiteSpace=wrap;html=1;fontSize=16;rounded=1;fillColor=#dae8fc;strokeColor=#6c8ebf;fontFamily=HarmonyOS Sans SC;" parent="1" vertex="1">
          <mxGeometry x="790" y="240" width="120" height="60" as="geometry" />
        </mxCell>
        <mxCell id="Va1dS70a_uc38eQ9kZBu-38" value="" style="ellipse;html=1;shape=endState;fillColor=#000000;strokeColor=#ff0000;fontFamily=HarmonyOS Sans SC;" parent="1" vertex="1">
          <mxGeometry x="990" y="255" width="30" height="30" as="geometry" />
        </mxCell>
        <mxCell id="Va1dS70a_uc38eQ9kZBu-39" value="" style="edgeStyle=orthogonalEdgeStyle;rounded=0;orthogonalLoop=1;jettySize=auto;html=1;fontFamily=HarmonyOS Sans SC;" parent="1" source="Va1dS70a_uc38eQ9kZBu-40" target="Va1dS70a_uc38eQ9kZBu-38" edge="1">
          <mxGeometry relative="1" as="geometry" />
        </mxCell>
        <mxCell id="Va1dS70a_uc38eQ9kZBu-40" value="处理异常" style="whiteSpace=wrap;html=1;fontSize=16;rounded=1;fillColor=#dae8fc;strokeColor=#6c8ebf;fontFamily=HarmonyOS Sans SC;" parent="1" vertex="1">
          <mxGeometry x="1100" y="240" width="120" height="60" as="geometry" />
        </mxCell>
        <mxCell id="Va1dS70a_uc38eQ9kZBu-41" value="&lt;font style=&quot;font-size: 16px;&quot;&gt;接口 B&lt;/font&gt;" style="text;strokeColor=none;align=center;fillColor=none;html=1;verticalAlign=middle;whiteSpace=wrap;rounded=0;fontFamily=HarmonyOS Sans SC;" parent="1" vertex="1">
          <mxGeometry y="255" width="60" height="30" as="geometry" />
        </mxCell>
        <mxCell id="a8XFu-c6uVQhI_BoMhfb-2" value="" style="edgeStyle=orthogonalEdgeStyle;rounded=0;orthogonalLoop=1;jettySize=auto;html=1;fontSize=12;startSize=8;endSize=8;fontFamily=HarmonyOS Sans SC;" parent="1" source="a8XFu-c6uVQhI_BoMhfb-1" target="Va1dS70a_uc38eQ9kZBu-1" edge="1">
          <mxGeometry relative="1" as="geometry" />
        </mxCell>
        <mxCell id="a8XFu-c6uVQhI_BoMhfb-1" value="" style="ellipse;html=1;shape=startState;fillColor=#000000;strokeColor=#ff0000;fontSize=16;fontFamily=HarmonyOS Sans SC;" parent="1" vertex="1">
          <mxGeometry x="80" y="75" width="30" height="30" as="geometry" />
        </mxCell>
        <mxCell id="a8XFu-c6uVQhI_BoMhfb-4" value="" style="edgeStyle=orthogonalEdgeStyle;rounded=0;orthogonalLoop=1;jettySize=auto;html=1;fontSize=12;startSize=8;endSize=8;fontFamily=HarmonyOS Sans SC;" parent="1" source="a8XFu-c6uVQhI_BoMhfb-3" target="Va1dS70a_uc38eQ9kZBu-29" edge="1">
          <mxGeometry relative="1" as="geometry" />
        </mxCell>
        <mxCell id="a8XFu-c6uVQhI_BoMhfb-3" value="" style="ellipse;html=1;shape=startState;fillColor=#000000;strokeColor=#ff0000;fontSize=16;fontFamily=HarmonyOS Sans SC;" parent="1" vertex="1">
          <mxGeometry x="80" y="255" width="30" height="30" as="geometry" />
        </mxCell>
      </root>
    </mxGraphModel>
  </diagram>
  <diagram name="抽取工具类" id="pG6rOYDCUZFyTujYsA7B">
    <mxGraphModel dx="1353" dy="1369" grid="1" gridSize="5" guides="1" tooltips="1" connect="1" arrows="1" fold="1" page="0" pageScale="1" pageWidth="827" pageHeight="1169" math="0" shadow="0">
      <root>
        <mxCell id="uQKEY60EpkX8Z8qOYb04-0" />
        <mxCell id="uQKEY60EpkX8Z8qOYb04-1" parent="uQKEY60EpkX8Z8qOYb04-0" />
        <mxCell id="uQKEY60EpkX8Z8qOYb04-2" value="&lt;font style=&quot;font-size: 18px;&quot;&gt;接口之间的差别&lt;/font&gt;" style="rounded=0;whiteSpace=wrap;html=1;dashed=1;dashPattern=8 8;shadow=0;strokeWidth=2;fillStyle=auto;opacity=30;fillColor=#bac8d3;strokeColor=#23445d;movable=1;resizable=1;rotatable=1;deletable=1;editable=1;locked=0;connectable=1;align=center;horizontal=1;verticalAlign=middle;fontSize=18;labelBackgroundColor=none;labelBorderColor=none;spacingTop=0;fontFamily=HarmonyOS Sans SC;" parent="uQKEY60EpkX8Z8qOYb04-1" vertex="1">
          <mxGeometry x="435" width="360" height="360" as="geometry" />
        </mxCell>
        <mxCell id="bfQTOffvQbRZgkthQyFR-5" style="edgeStyle=orthogonalEdgeStyle;rounded=0;orthogonalLoop=1;jettySize=auto;html=1;entryX=0;entryY=0.5;entryDx=0;entryDy=0;fontFamily=HarmonyOS Sans SC;" parent="uQKEY60EpkX8Z8qOYb04-1" source="uQKEY60EpkX8Z8qOYb04-4" target="uQKEY60EpkX8Z8qOYb04-7" edge="1">
          <mxGeometry relative="1" as="geometry" />
        </mxCell>
        <mxCell id="bfQTOffvQbRZgkthQyFR-6" style="edgeStyle=orthogonalEdgeStyle;rounded=0;orthogonalLoop=1;jettySize=auto;html=1;entryX=0;entryY=0.5;entryDx=0;entryDy=0;fontFamily=HarmonyOS Sans SC;" parent="uQKEY60EpkX8Z8qOYb04-1" source="uQKEY60EpkX8Z8qOYb04-4" target="uQKEY60EpkX8Z8qOYb04-21" edge="1">
          <mxGeometry relative="1" as="geometry" />
        </mxCell>
        <mxCell id="uQKEY60EpkX8Z8qOYb04-4" value="打印入参工具类" style="rounded=1;whiteSpace=wrap;html=1;fontSize=16;fillColor=#dae8fc;strokeColor=#6c8ebf;fontFamily=HarmonyOS Sans SC;" parent="uQKEY60EpkX8Z8qOYb04-1" vertex="1">
          <mxGeometry x="200" y="150" width="150" height="60" as="geometry" />
        </mxCell>
        <mxCell id="uQKEY60EpkX8Z8qOYb04-5" value="" style="edgeStyle=orthogonalEdgeStyle;rounded=0;orthogonalLoop=1;jettySize=auto;html=1;fontFamily=HarmonyOS Sans SC;" parent="uQKEY60EpkX8Z8qOYb04-1" source="uQKEY60EpkX8Z8qOYb04-7" target="uQKEY60EpkX8Z8qOYb04-10" edge="1">
          <mxGeometry relative="1" as="geometry" />
        </mxCell>
        <mxCell id="bfQTOffvQbRZgkthQyFR-16" style="edgeStyle=orthogonalEdgeStyle;rounded=0;orthogonalLoop=1;jettySize=auto;html=1;entryX=0.5;entryY=0;entryDx=0;entryDy=0;fontFamily=HarmonyOS Sans SC;" parent="uQKEY60EpkX8Z8qOYb04-1" source="uQKEY60EpkX8Z8qOYb04-7" target="uQKEY60EpkX8Z8qOYb04-15" edge="1">
          <mxGeometry relative="1" as="geometry">
            <Array as="points">
              <mxPoint x="520" y="20" />
              <mxPoint x="1275" y="20" />
            </Array>
          </mxGeometry>
        </mxCell>
        <mxCell id="uQKEY60EpkX8Z8qOYb04-7" value="校验入参" style="whiteSpace=wrap;html=1;fontSize=16;rounded=1;fontFamily=HarmonyOS Sans SC;" parent="uQKEY60EpkX8Z8qOYb04-1" vertex="1">
          <mxGeometry x="460" y="60" width="120" height="60" as="geometry" />
        </mxCell>
        <mxCell id="bfQTOffvQbRZgkthQyFR-3" style="edgeStyle=orthogonalEdgeStyle;rounded=0;orthogonalLoop=1;jettySize=auto;html=1;entryX=0;entryY=0.5;entryDx=0;entryDy=0;fontFamily=HarmonyOS Sans SC;" parent="uQKEY60EpkX8Z8qOYb04-1" source="uQKEY60EpkX8Z8qOYb04-10" target="uQKEY60EpkX8Z8qOYb04-12" edge="1">
          <mxGeometry relative="1" as="geometry" />
        </mxCell>
        <mxCell id="bfQTOffvQbRZgkthQyFR-13" style="edgeStyle=orthogonalEdgeStyle;rounded=0;orthogonalLoop=1;jettySize=auto;html=1;entryX=0.5;entryY=0;entryDx=0;entryDy=0;fontFamily=HarmonyOS Sans SC;" parent="uQKEY60EpkX8Z8qOYb04-1" source="uQKEY60EpkX8Z8qOYb04-10" target="uQKEY60EpkX8Z8qOYb04-15" edge="1">
          <mxGeometry relative="1" as="geometry">
            <Array as="points">
              <mxPoint x="720" y="20" />
              <mxPoint x="1275" y="20" />
            </Array>
          </mxGeometry>
        </mxCell>
        <mxCell id="uQKEY60EpkX8Z8qOYb04-10" value="业务逻辑" style="whiteSpace=wrap;html=1;fontSize=16;rounded=1;fontFamily=HarmonyOS Sans SC;" parent="uQKEY60EpkX8Z8qOYb04-1" vertex="1">
          <mxGeometry x="660" y="60" width="120" height="60" as="geometry" />
        </mxCell>
        <mxCell id="uQKEY60EpkX8Z8qOYb04-11" value="" style="edgeStyle=orthogonalEdgeStyle;rounded=0;orthogonalLoop=1;jettySize=auto;html=1;fontFamily=HarmonyOS Sans SC;" parent="uQKEY60EpkX8Z8qOYb04-1" source="uQKEY60EpkX8Z8qOYb04-12" target="uQKEY60EpkX8Z8qOYb04-13" edge="1">
          <mxGeometry relative="1" as="geometry" />
        </mxCell>
        <mxCell id="uQKEY60EpkX8Z8qOYb04-12" value="打印出参工具类" style="whiteSpace=wrap;html=1;fontSize=16;rounded=1;fillColor=#dae8fc;strokeColor=#6c8ebf;fontFamily=HarmonyOS Sans SC;" parent="uQKEY60EpkX8Z8qOYb04-1" vertex="1">
          <mxGeometry x="900" y="150" width="150" height="60" as="geometry" />
        </mxCell>
        <mxCell id="uQKEY60EpkX8Z8qOYb04-13" value="" style="ellipse;html=1;shape=endState;fillColor=#000000;strokeColor=#ff0000;fontFamily=HarmonyOS Sans SC;" parent="uQKEY60EpkX8Z8qOYb04-1" vertex="1">
          <mxGeometry x="1110" y="165" width="30" height="30" as="geometry" />
        </mxCell>
        <mxCell id="uQKEY60EpkX8Z8qOYb04-14" value="" style="edgeStyle=orthogonalEdgeStyle;rounded=0;orthogonalLoop=1;jettySize=auto;html=1;fontFamily=HarmonyOS Sans SC;" parent="uQKEY60EpkX8Z8qOYb04-1" source="uQKEY60EpkX8Z8qOYb04-15" target="uQKEY60EpkX8Z8qOYb04-13" edge="1">
          <mxGeometry relative="1" as="geometry" />
        </mxCell>
        <mxCell id="uQKEY60EpkX8Z8qOYb04-15" value="处理异常工具类" style="whiteSpace=wrap;html=1;fontSize=16;rounded=1;fillColor=#dae8fc;strokeColor=#6c8ebf;fontFamily=HarmonyOS Sans SC;" parent="uQKEY60EpkX8Z8qOYb04-1" vertex="1">
          <mxGeometry x="1200" y="150" width="150" height="60" as="geometry" />
        </mxCell>
        <mxCell id="uQKEY60EpkX8Z8qOYb04-16" value="&lt;font style=&quot;font-size: 16px;&quot;&gt;接口 A&lt;/font&gt;" style="text;strokeColor=none;align=center;fillColor=none;html=1;verticalAlign=middle;whiteSpace=wrap;rounded=0;fontFamily=HarmonyOS Sans SC;" parent="uQKEY60EpkX8Z8qOYb04-1" vertex="1">
          <mxGeometry y="75" width="60" height="30" as="geometry" />
        </mxCell>
        <mxCell id="uQKEY60EpkX8Z8qOYb04-19" value="" style="edgeStyle=orthogonalEdgeStyle;rounded=0;orthogonalLoop=1;jettySize=auto;html=1;fontFamily=HarmonyOS Sans SC;" parent="uQKEY60EpkX8Z8qOYb04-1" source="uQKEY60EpkX8Z8qOYb04-21" target="uQKEY60EpkX8Z8qOYb04-24" edge="1">
          <mxGeometry relative="1" as="geometry" />
        </mxCell>
        <mxCell id="bfQTOffvQbRZgkthQyFR-11" style="edgeStyle=orthogonalEdgeStyle;rounded=0;orthogonalLoop=1;jettySize=auto;html=1;entryX=0.5;entryY=1;entryDx=0;entryDy=0;fontFamily=HarmonyOS Sans SC;" parent="uQKEY60EpkX8Z8qOYb04-1" source="uQKEY60EpkX8Z8qOYb04-21" target="uQKEY60EpkX8Z8qOYb04-15" edge="1">
          <mxGeometry relative="1" as="geometry">
            <Array as="points">
              <mxPoint x="520" y="340" />
              <mxPoint x="1275" y="340" />
            </Array>
          </mxGeometry>
        </mxCell>
        <mxCell id="uQKEY60EpkX8Z8qOYb04-21" value="校验入参" style="whiteSpace=wrap;html=1;fontSize=16;rounded=1;fontFamily=HarmonyOS Sans SC;" parent="uQKEY60EpkX8Z8qOYb04-1" vertex="1">
          <mxGeometry x="460" y="240" width="120" height="60" as="geometry" />
        </mxCell>
        <mxCell id="bfQTOffvQbRZgkthQyFR-4" style="edgeStyle=orthogonalEdgeStyle;rounded=0;orthogonalLoop=1;jettySize=auto;html=1;entryX=0;entryY=0.5;entryDx=0;entryDy=0;fontFamily=HarmonyOS Sans SC;" parent="uQKEY60EpkX8Z8qOYb04-1" source="uQKEY60EpkX8Z8qOYb04-24" target="uQKEY60EpkX8Z8qOYb04-12" edge="1">
          <mxGeometry relative="1" as="geometry" />
        </mxCell>
        <mxCell id="bfQTOffvQbRZgkthQyFR-12" style="edgeStyle=orthogonalEdgeStyle;rounded=0;orthogonalLoop=1;jettySize=auto;html=1;entryX=0.5;entryY=1;entryDx=0;entryDy=0;fontFamily=HarmonyOS Sans SC;" parent="uQKEY60EpkX8Z8qOYb04-1" source="uQKEY60EpkX8Z8qOYb04-24" target="uQKEY60EpkX8Z8qOYb04-15" edge="1">
          <mxGeometry relative="1" as="geometry">
            <Array as="points">
              <mxPoint x="720" y="340" />
              <mxPoint x="1275" y="340" />
            </Array>
          </mxGeometry>
        </mxCell>
        <mxCell id="uQKEY60EpkX8Z8qOYb04-24" value="业务逻辑" style="whiteSpace=wrap;html=1;fontSize=16;rounded=1;fontFamily=HarmonyOS Sans SC;" parent="uQKEY60EpkX8Z8qOYb04-1" vertex="1">
          <mxGeometry x="660" y="240" width="120" height="60" as="geometry" />
        </mxCell>
        <mxCell id="uQKEY60EpkX8Z8qOYb04-30" value="&lt;font style=&quot;font-size: 16px;&quot;&gt;接口 B&lt;/font&gt;" style="text;strokeColor=none;align=center;fillColor=none;html=1;verticalAlign=middle;whiteSpace=wrap;rounded=0;fontFamily=HarmonyOS Sans SC;" parent="uQKEY60EpkX8Z8qOYb04-1" vertex="1">
          <mxGeometry y="255" width="60" height="30" as="geometry" />
        </mxCell>
        <mxCell id="bfQTOffvQbRZgkthQyFR-9" style="edgeStyle=orthogonalEdgeStyle;rounded=0;orthogonalLoop=1;jettySize=auto;html=1;entryX=0;entryY=0.5;entryDx=0;entryDy=0;fontFamily=HarmonyOS Sans SC;" parent="uQKEY60EpkX8Z8qOYb04-1" source="bfQTOffvQbRZgkthQyFR-7" target="uQKEY60EpkX8Z8qOYb04-4" edge="1">
          <mxGeometry relative="1" as="geometry" />
        </mxCell>
        <mxCell id="bfQTOffvQbRZgkthQyFR-7" value="" style="ellipse;html=1;shape=startState;fillColor=#000000;strokeColor=#ff0000;fontFamily=HarmonyOS Sans SC;" parent="uQKEY60EpkX8Z8qOYb04-1" vertex="1">
          <mxGeometry x="75" y="75" width="30" height="30" as="geometry" />
        </mxCell>
        <mxCell id="bfQTOffvQbRZgkthQyFR-10" style="edgeStyle=orthogonalEdgeStyle;rounded=0;orthogonalLoop=1;jettySize=auto;html=1;entryX=0;entryY=0.5;entryDx=0;entryDy=0;fontFamily=HarmonyOS Sans SC;" parent="uQKEY60EpkX8Z8qOYb04-1" source="bfQTOffvQbRZgkthQyFR-8" target="uQKEY60EpkX8Z8qOYb04-4" edge="1">
          <mxGeometry relative="1" as="geometry" />
        </mxCell>
        <mxCell id="bfQTOffvQbRZgkthQyFR-8" value="" style="ellipse;html=1;shape=startState;fillColor=#000000;strokeColor=#ff0000;fontFamily=HarmonyOS Sans SC;" parent="uQKEY60EpkX8Z8qOYb04-1" vertex="1">
          <mxGeometry x="75" y="255" width="30" height="30" as="geometry" />
        </mxCell>
      </root>
    </mxGraphModel>
  </diagram>
  <diagram name="模板方法" id="9LMM2XUre2cFE73BTTSo">
    <mxGraphModel dx="1353" dy="1369" grid="1" gridSize="5" guides="1" tooltips="1" connect="1" arrows="1" fold="1" page="0" pageScale="1" pageWidth="827" pageHeight="1169" math="0" shadow="0">
      <root>
        <mxCell id="vjONt-Cmpfkdjavurw3d-0" />
        <mxCell id="vjONt-Cmpfkdjavurw3d-1" parent="vjONt-Cmpfkdjavurw3d-0" />
        <mxCell id="vjONt-Cmpfkdjavurw3d-3" value="" style="edgeStyle=orthogonalEdgeStyle;rounded=0;orthogonalLoop=1;jettySize=auto;html=1;fontFamily=HarmonyOS Sans SC;" parent="vjONt-Cmpfkdjavurw3d-1" source="vjONt-Cmpfkdjavurw3d-4" target="vjONt-Cmpfkdjavurw3d-7" edge="1">
          <mxGeometry relative="1" as="geometry" />
        </mxCell>
        <mxCell id="vjONt-Cmpfkdjavurw3d-4" value="打印入参" style="rounded=1;whiteSpace=wrap;html=1;fontSize=16;fillColor=#dae8fc;strokeColor=#6c8ebf;fontFamily=HarmonyOS Sans SC;" parent="vjONt-Cmpfkdjavurw3d-1" vertex="1">
          <mxGeometry x="190" y="70" width="120" height="60" as="geometry" />
        </mxCell>
        <mxCell id="vjONt-Cmpfkdjavurw3d-5" value="" style="edgeStyle=orthogonalEdgeStyle;rounded=0;orthogonalLoop=1;jettySize=auto;html=1;fontFamily=HarmonyOS Sans SC;" parent="vjONt-Cmpfkdjavurw3d-1" source="vjONt-Cmpfkdjavurw3d-7" target="vjONt-Cmpfkdjavurw3d-10" edge="1">
          <mxGeometry relative="1" as="geometry" />
        </mxCell>
        <mxCell id="vjONt-Cmpfkdjavurw3d-6" style="edgeStyle=orthogonalEdgeStyle;rounded=0;orthogonalLoop=1;jettySize=auto;html=1;fontFamily=HarmonyOS Sans SC;entryX=0.5;entryY=0;entryDx=0;entryDy=0;" parent="vjONt-Cmpfkdjavurw3d-1" source="vjONt-Cmpfkdjavurw3d-7" target="vjONt-Cmpfkdjavurw3d-15" edge="1">
          <mxGeometry relative="1" as="geometry">
            <mxPoint x="440.0689655172414" y="200" as="targetPoint" />
            <Array as="points">
              <mxPoint x="450" />
              <mxPoint x="1160" />
            </Array>
          </mxGeometry>
        </mxCell>
        <mxCell id="krgARC5gtRdS5LCcTfHL-1" style="edgeStyle=none;curved=1;rounded=0;orthogonalLoop=1;jettySize=auto;html=1;exitX=0.75;exitY=1;exitDx=0;exitDy=0;entryX=0.75;entryY=0;entryDx=0;entryDy=0;fontSize=12;startSize=8;endSize=8;fontFamily=HarmonyOS Sans SC;" parent="vjONt-Cmpfkdjavurw3d-1" source="vjONt-Cmpfkdjavurw3d-7" target="vjONt-Cmpfkdjavurw3d-21" edge="1">
          <mxGeometry relative="1" as="geometry" />
        </mxCell>
        <mxCell id="vjONt-Cmpfkdjavurw3d-7" value="校验入参&lt;br&gt;（抽象）" style="whiteSpace=wrap;html=1;fontSize=16;rounded=1;fontFamily=HarmonyOS Sans SC;fillColor=#dae8fc;strokeColor=#6c8ebf;" parent="vjONt-Cmpfkdjavurw3d-1" vertex="1">
          <mxGeometry x="390" y="70" width="120" height="60" as="geometry" />
        </mxCell>
        <mxCell id="vjONt-Cmpfkdjavurw3d-8" value="" style="edgeStyle=orthogonalEdgeStyle;rounded=0;orthogonalLoop=1;jettySize=auto;html=1;fontFamily=HarmonyOS Sans SC;" parent="vjONt-Cmpfkdjavurw3d-1" source="vjONt-Cmpfkdjavurw3d-10" target="vjONt-Cmpfkdjavurw3d-12" edge="1">
          <mxGeometry relative="1" as="geometry" />
        </mxCell>
        <mxCell id="vjONt-Cmpfkdjavurw3d-9" style="edgeStyle=orthogonalEdgeStyle;rounded=0;orthogonalLoop=1;jettySize=auto;html=1;fontFamily=HarmonyOS Sans SC;entryX=0.5;entryY=0;entryDx=0;entryDy=0;" parent="vjONt-Cmpfkdjavurw3d-1" source="vjONt-Cmpfkdjavurw3d-10" target="vjONt-Cmpfkdjavurw3d-15" edge="1">
          <mxGeometry relative="1" as="geometry">
            <mxPoint x="1160.0689655172418" y="390" as="targetPoint" />
            <Array as="points">
              <mxPoint x="650" />
              <mxPoint x="1160" />
            </Array>
          </mxGeometry>
        </mxCell>
        <mxCell id="krgARC5gtRdS5LCcTfHL-3" style="edgeStyle=none;curved=1;rounded=0;orthogonalLoop=1;jettySize=auto;html=1;exitX=0.75;exitY=1;exitDx=0;exitDy=0;entryX=0.75;entryY=0;entryDx=0;entryDy=0;fontSize=12;startSize=8;endSize=8;fontFamily=HarmonyOS Sans SC;" parent="vjONt-Cmpfkdjavurw3d-1" source="vjONt-Cmpfkdjavurw3d-10" target="vjONt-Cmpfkdjavurw3d-24" edge="1">
          <mxGeometry relative="1" as="geometry" />
        </mxCell>
        <mxCell id="krgARC5gtRdS5LCcTfHL-7" style="edgeStyle=orthogonalEdgeStyle;rounded=0;orthogonalLoop=1;jettySize=auto;html=1;exitX=1;exitY=0.75;exitDx=0;exitDy=0;entryX=1;entryY=0.5;entryDx=0;entryDy=0;fontSize=12;startSize=8;endSize=8;fontFamily=HarmonyOS Sans SC;" parent="vjONt-Cmpfkdjavurw3d-1" source="vjONt-Cmpfkdjavurw3d-10" target="S9TWL5Ccek_f63MP80UP-5" edge="1">
          <mxGeometry relative="1" as="geometry" />
        </mxCell>
        <mxCell id="vjONt-Cmpfkdjavurw3d-10" value="业务逻辑&lt;br&gt;(抽象)" style="whiteSpace=wrap;html=1;fontSize=16;rounded=1;fontFamily=HarmonyOS Sans SC;fillColor=#dae8fc;strokeColor=#6c8ebf;" parent="vjONt-Cmpfkdjavurw3d-1" vertex="1">
          <mxGeometry x="590" y="70" width="120" height="60" as="geometry" />
        </mxCell>
        <mxCell id="vjONt-Cmpfkdjavurw3d-11" value="" style="edgeStyle=orthogonalEdgeStyle;rounded=0;orthogonalLoop=1;jettySize=auto;html=1;fontFamily=HarmonyOS Sans SC;" parent="vjONt-Cmpfkdjavurw3d-1" source="vjONt-Cmpfkdjavurw3d-12" target="vjONt-Cmpfkdjavurw3d-13" edge="1">
          <mxGeometry relative="1" as="geometry" />
        </mxCell>
        <mxCell id="vjONt-Cmpfkdjavurw3d-12" value="打印出参" style="whiteSpace=wrap;html=1;fontSize=16;rounded=1;fillColor=#dae8fc;strokeColor=#6c8ebf;fontFamily=HarmonyOS Sans SC;" parent="vjONt-Cmpfkdjavurw3d-1" vertex="1">
          <mxGeometry x="790" y="70" width="120" height="60" as="geometry" />
        </mxCell>
        <mxCell id="vjONt-Cmpfkdjavurw3d-13" value="" style="ellipse;html=1;shape=endState;fillColor=#000000;strokeColor=#ff0000;fontFamily=HarmonyOS Sans SC;" parent="vjONt-Cmpfkdjavurw3d-1" vertex="1">
          <mxGeometry x="990" y="85" width="30" height="30" as="geometry" />
        </mxCell>
        <mxCell id="vjONt-Cmpfkdjavurw3d-14" value="" style="edgeStyle=orthogonalEdgeStyle;rounded=0;orthogonalLoop=1;jettySize=auto;html=1;fontFamily=HarmonyOS Sans SC;" parent="vjONt-Cmpfkdjavurw3d-1" source="vjONt-Cmpfkdjavurw3d-15" target="vjONt-Cmpfkdjavurw3d-13" edge="1">
          <mxGeometry relative="1" as="geometry" />
        </mxCell>
        <mxCell id="vjONt-Cmpfkdjavurw3d-15" value="处理异常" style="whiteSpace=wrap;html=1;fontSize=16;rounded=1;fillColor=#dae8fc;strokeColor=#6c8ebf;fontFamily=HarmonyOS Sans SC;" parent="vjONt-Cmpfkdjavurw3d-1" vertex="1">
          <mxGeometry x="1100" y="70" width="120" height="60" as="geometry" />
        </mxCell>
        <mxCell id="vjONt-Cmpfkdjavurw3d-16" value="&lt;font style=&quot;font-size: 16px;&quot;&gt;模板&lt;/font&gt;" style="text;strokeColor=none;align=center;fillColor=none;html=1;verticalAlign=middle;whiteSpace=wrap;rounded=0;fontFamily=HarmonyOS Sans SC;" parent="vjONt-Cmpfkdjavurw3d-1" vertex="1">
          <mxGeometry y="85" width="60" height="30" as="geometry" />
        </mxCell>
        <mxCell id="krgARC5gtRdS5LCcTfHL-0" style="edgeStyle=none;curved=1;rounded=0;orthogonalLoop=1;jettySize=auto;html=1;exitX=0.25;exitY=0;exitDx=0;exitDy=0;entryX=0.25;entryY=1;entryDx=0;entryDy=0;fontSize=12;startSize=8;endSize=8;dashed=1;fontFamily=HarmonyOS Sans SC;" parent="vjONt-Cmpfkdjavurw3d-1" source="vjONt-Cmpfkdjavurw3d-21" target="vjONt-Cmpfkdjavurw3d-7" edge="1">
          <mxGeometry relative="1" as="geometry" />
        </mxCell>
        <mxCell id="vjONt-Cmpfkdjavurw3d-21" value="校验入参" style="whiteSpace=wrap;html=1;fontSize=16;rounded=1;fontFamily=HarmonyOS Sans SC;" parent="vjONt-Cmpfkdjavurw3d-1" vertex="1">
          <mxGeometry x="390" y="250" width="120" height="60" as="geometry" />
        </mxCell>
        <mxCell id="krgARC5gtRdS5LCcTfHL-2" style="edgeStyle=none;curved=1;rounded=0;orthogonalLoop=1;jettySize=auto;html=1;exitX=0.25;exitY=0;exitDx=0;exitDy=0;entryX=0.25;entryY=1;entryDx=0;entryDy=0;fontSize=12;startSize=8;endSize=8;dashed=1;fontFamily=HarmonyOS Sans SC;" parent="vjONt-Cmpfkdjavurw3d-1" source="vjONt-Cmpfkdjavurw3d-24" target="vjONt-Cmpfkdjavurw3d-10" edge="1">
          <mxGeometry relative="1" as="geometry" />
        </mxCell>
        <mxCell id="vjONt-Cmpfkdjavurw3d-24" value="业务逻辑" style="whiteSpace=wrap;html=1;fontSize=16;rounded=1;fontFamily=HarmonyOS Sans SC;" parent="vjONt-Cmpfkdjavurw3d-1" vertex="1">
          <mxGeometry x="590" y="250" width="120" height="60" as="geometry" />
        </mxCell>
        <mxCell id="vjONt-Cmpfkdjavurw3d-30" value="&lt;font style=&quot;font-size: 16px;&quot;&gt;接口 A&lt;/font&gt;" style="text;strokeColor=none;align=center;fillColor=none;html=1;verticalAlign=middle;whiteSpace=wrap;rounded=0;fontFamily=HarmonyOS Sans SC;" parent="vjONt-Cmpfkdjavurw3d-1" vertex="1">
          <mxGeometry y="265" width="60" height="30" as="geometry" />
        </mxCell>
        <mxCell id="vjONt-Cmpfkdjavurw3d-31" value="" style="edgeStyle=orthogonalEdgeStyle;rounded=0;orthogonalLoop=1;jettySize=auto;html=1;fontSize=12;startSize=8;endSize=8;fontFamily=HarmonyOS Sans SC;" parent="vjONt-Cmpfkdjavurw3d-1" source="vjONt-Cmpfkdjavurw3d-32" target="vjONt-Cmpfkdjavurw3d-4" edge="1">
          <mxGeometry relative="1" as="geometry" />
        </mxCell>
        <mxCell id="vjONt-Cmpfkdjavurw3d-32" value="" style="ellipse;html=1;shape=startState;fillColor=#000000;strokeColor=#ff0000;fontSize=16;fontFamily=HarmonyOS Sans SC;" parent="vjONt-Cmpfkdjavurw3d-1" vertex="1">
          <mxGeometry x="80" y="85" width="30" height="30" as="geometry" />
        </mxCell>
        <mxCell id="S9TWL5Ccek_f63MP80UP-8" style="edgeStyle=orthogonalEdgeStyle;rounded=0;orthogonalLoop=1;jettySize=auto;html=1;entryX=0.5;entryY=1;entryDx=0;entryDy=0;fontSize=12;startSize=8;endSize=8;fontFamily=HarmonyOS Sans SC;" parent="vjONt-Cmpfkdjavurw3d-1" source="vjONt-Cmpfkdjavurw3d-34" target="vjONt-Cmpfkdjavurw3d-4" edge="1">
          <mxGeometry relative="1" as="geometry" />
        </mxCell>
        <mxCell id="vjONt-Cmpfkdjavurw3d-34" value="" style="ellipse;html=1;shape=startState;fillColor=#000000;strokeColor=#ff0000;fontSize=16;fontFamily=HarmonyOS Sans SC;" parent="vjONt-Cmpfkdjavurw3d-1" vertex="1">
          <mxGeometry x="80" y="265" width="30" height="30" as="geometry" />
        </mxCell>
        <mxCell id="krgARC5gtRdS5LCcTfHL-5" style="edgeStyle=orthogonalEdgeStyle;rounded=0;orthogonalLoop=1;jettySize=auto;html=1;exitX=0;exitY=0.5;exitDx=0;exitDy=0;entryX=0;entryY=0.75;entryDx=0;entryDy=0;fontSize=12;startSize=8;endSize=8;dashed=1;fontFamily=HarmonyOS Sans SC;" parent="vjONt-Cmpfkdjavurw3d-1" source="S9TWL5Ccek_f63MP80UP-4" target="vjONt-Cmpfkdjavurw3d-7" edge="1">
          <mxGeometry relative="1" as="geometry" />
        </mxCell>
        <mxCell id="krgARC5gtRdS5LCcTfHL-6" style="edgeStyle=orthogonalEdgeStyle;rounded=0;orthogonalLoop=1;jettySize=auto;html=1;exitX=1;exitY=0.75;exitDx=0;exitDy=0;entryX=1;entryY=0.5;entryDx=0;entryDy=0;fontSize=12;startSize=8;endSize=8;fontFamily=HarmonyOS Sans SC;" parent="vjONt-Cmpfkdjavurw3d-1" source="vjONt-Cmpfkdjavurw3d-7" target="S9TWL5Ccek_f63MP80UP-4" edge="1">
          <mxGeometry relative="1" as="geometry" />
        </mxCell>
        <mxCell id="S9TWL5Ccek_f63MP80UP-4" value="校验入参" style="whiteSpace=wrap;html=1;fontSize=16;rounded=1;fontFamily=HarmonyOS Sans SC;" parent="vjONt-Cmpfkdjavurw3d-1" vertex="1">
          <mxGeometry x="390" y="430" width="120" height="60" as="geometry" />
        </mxCell>
        <mxCell id="krgARC5gtRdS5LCcTfHL-8" style="edgeStyle=orthogonalEdgeStyle;rounded=0;orthogonalLoop=1;jettySize=auto;html=1;exitX=0;exitY=0.5;exitDx=0;exitDy=0;entryX=0;entryY=0.75;entryDx=0;entryDy=0;fontSize=12;startSize=8;endSize=8;dashed=1;fontFamily=HarmonyOS Sans SC;" parent="vjONt-Cmpfkdjavurw3d-1" source="S9TWL5Ccek_f63MP80UP-5" target="vjONt-Cmpfkdjavurw3d-10" edge="1">
          <mxGeometry relative="1" as="geometry" />
        </mxCell>
        <mxCell id="S9TWL5Ccek_f63MP80UP-5" value="业务逻辑" style="whiteSpace=wrap;html=1;fontSize=16;rounded=1;fontFamily=HarmonyOS Sans SC;" parent="vjONt-Cmpfkdjavurw3d-1" vertex="1">
          <mxGeometry x="590" y="430" width="120" height="60" as="geometry" />
        </mxCell>
        <mxCell id="S9TWL5Ccek_f63MP80UP-6" value="&lt;font style=&quot;font-size: 16px;&quot;&gt;接口 B&lt;/font&gt;" style="text;strokeColor=none;align=center;fillColor=none;html=1;verticalAlign=middle;whiteSpace=wrap;rounded=0;fontFamily=HarmonyOS Sans SC;" parent="vjONt-Cmpfkdjavurw3d-1" vertex="1">
          <mxGeometry y="445" width="60" height="30" as="geometry" />
        </mxCell>
        <mxCell id="S9TWL5Ccek_f63MP80UP-9" style="edgeStyle=orthogonalEdgeStyle;rounded=0;orthogonalLoop=1;jettySize=auto;html=1;entryX=0.5;entryY=1;entryDx=0;entryDy=0;fontSize=12;startSize=8;endSize=8;fontFamily=HarmonyOS Sans SC;" parent="vjONt-Cmpfkdjavurw3d-1" source="S9TWL5Ccek_f63MP80UP-7" target="vjONt-Cmpfkdjavurw3d-4" edge="1">
          <mxGeometry relative="1" as="geometry" />
        </mxCell>
        <mxCell id="S9TWL5Ccek_f63MP80UP-7" value="" style="ellipse;html=1;shape=startState;fillColor=#000000;strokeColor=#ff0000;fontSize=16;fontFamily=HarmonyOS Sans SC;" parent="vjONt-Cmpfkdjavurw3d-1" vertex="1">
          <mxGeometry x="80" y="445" width="30" height="30" as="geometry" />
        </mxCell>
        <mxCell id="7gsmCLuijoPDnlTnllHR-2" value="&lt;font style=&quot;font-size: 14px;&quot;&gt;实现&lt;/font&gt;" style="text;html=1;strokeColor=none;fillColor=none;align=center;verticalAlign=middle;whiteSpace=wrap;rounded=0;fontSize=14;fontFamily=HarmonyOS Sans SC;labelBackgroundColor=default;spacing=2;" parent="vjONt-Cmpfkdjavurw3d-1" vertex="1">
          <mxGeometry x="350" y="360" width="40" height="20" as="geometry" />
        </mxCell>
        <mxCell id="7gsmCLuijoPDnlTnllHR-6" value="&lt;font style=&quot;font-size: 14px;&quot;&gt;调用&lt;/font&gt;" style="text;html=1;strokeColor=none;fillColor=none;align=center;verticalAlign=middle;whiteSpace=wrap;rounded=0;fontSize=14;fontFamily=HarmonyOS Sans SC;labelBackgroundColor=default;spacing=2;" parent="vjONt-Cmpfkdjavurw3d-1" vertex="1">
          <mxGeometry x="510" y="360" width="40" height="20" as="geometry" />
        </mxCell>
        <mxCell id="7gsmCLuijoPDnlTnllHR-7" value="&lt;font style=&quot;font-size: 14px;&quot;&gt;实现&lt;/font&gt;" style="text;html=1;strokeColor=none;fillColor=none;align=center;verticalAlign=middle;whiteSpace=wrap;rounded=0;fontSize=14;fontFamily=HarmonyOS Sans SC;labelBackgroundColor=default;spacing=2;" parent="vjONt-Cmpfkdjavurw3d-1" vertex="1">
          <mxGeometry x="400" y="180" width="40" height="20" as="geometry" />
        </mxCell>
        <mxCell id="7gsmCLuijoPDnlTnllHR-8" value="&lt;font style=&quot;font-size: 14px;&quot;&gt;调用&lt;/font&gt;" style="text;html=1;strokeColor=none;fillColor=none;align=center;verticalAlign=middle;whiteSpace=wrap;rounded=0;fontSize=14;fontFamily=HarmonyOS Sans SC;labelBackgroundColor=default;spacing=2;" parent="vjONt-Cmpfkdjavurw3d-1" vertex="1">
          <mxGeometry x="460" y="180" width="40" height="20" as="geometry" />
        </mxCell>
        <mxCell id="7gsmCLuijoPDnlTnllHR-9" value="&lt;font style=&quot;font-size: 14px;&quot;&gt;实现&lt;/font&gt;" style="text;html=1;strokeColor=none;fillColor=none;align=center;verticalAlign=middle;whiteSpace=wrap;rounded=0;fontSize=14;fontFamily=HarmonyOS Sans SC;labelBackgroundColor=default;spacing=2;" parent="vjONt-Cmpfkdjavurw3d-1" vertex="1">
          <mxGeometry x="600" y="180" width="40" height="20" as="geometry" />
        </mxCell>
        <mxCell id="7gsmCLuijoPDnlTnllHR-10" value="&lt;font style=&quot;font-size: 14px;&quot;&gt;调用&lt;/font&gt;" style="text;html=1;strokeColor=none;fillColor=none;align=center;verticalAlign=middle;whiteSpace=wrap;rounded=0;fontSize=14;fontFamily=HarmonyOS Sans SC;labelBackgroundColor=default;spacing=2;" parent="vjONt-Cmpfkdjavurw3d-1" vertex="1">
          <mxGeometry x="660" y="180" width="40" height="20" as="geometry" />
        </mxCell>
        <mxCell id="7gsmCLuijoPDnlTnllHR-11" value="&lt;font style=&quot;font-size: 14px;&quot;&gt;调用&lt;/font&gt;" style="text;html=1;strokeColor=none;fillColor=none;align=center;verticalAlign=middle;whiteSpace=wrap;rounded=0;fontSize=14;fontFamily=HarmonyOS Sans SC;labelBackgroundColor=default;spacing=2;" parent="vjONt-Cmpfkdjavurw3d-1" vertex="1">
          <mxGeometry x="710" y="360" width="40" height="20" as="geometry" />
        </mxCell>
        <mxCell id="7gsmCLuijoPDnlTnllHR-12" value="&lt;font style=&quot;font-size: 14px;&quot;&gt;实现&lt;/font&gt;" style="text;html=1;strokeColor=none;fillColor=none;align=center;verticalAlign=middle;whiteSpace=wrap;rounded=0;fontSize=14;fontFamily=HarmonyOS Sans SC;labelBackgroundColor=default;spacing=2;" parent="vjONt-Cmpfkdjavurw3d-1" vertex="1">
          <mxGeometry x="550" y="360" width="40" height="20" as="geometry" />
        </mxCell>
      </root>
    </mxGraphModel>
  </diagram>
</mxfile>
